<svg width="47" height="64" viewBox="0 0 47 64" fill="none" xmlns="http://www.w3.org/2000/svg">
<path fill-rule="evenodd" clip-rule="evenodd" d="M28.0684 48.7161L39.2281 51.7229L45.9977 26.32C48.9053 15.4082 42.519 4.20678 31.7329 1.30071C20.9472 -1.605 9.84638 4.885 6.93843 15.7968L0.169189 41.1993L11.3289 44.2061L9.07242 52.6736C7.82605 57.3504 10.5632 62.1507 15.1856 63.3961C19.8084 64.6418 24.5659 61.8604 25.8122 57.1836L28.0684 48.7161ZM35.1527 44.5746L40.4177 24.8168C42.4948 17.0225 37.9328 9.02142 30.229 6.9457C22.5246 4.86999 14.5953 9.50606 12.5185 17.3L7.25312 37.0579L18.4129 40.0646L14.6521 54.1771C14.2369 55.7361 15.149 57.3361 16.6902 57.7511C18.231 58.1664 19.8166 57.2393 20.2322 55.6804L23.9929 41.5679L35.1527 44.5746Z" fill="#2EA4AB"/>
<path fill-rule="evenodd" clip-rule="evenodd" d="M5.51831 42.6407L11.3289 44.2061L9.07235 52.6736C7.82599 57.3504 10.5631 62.1507 15.1859 63.3961C19.8084 64.6418 24.5658 61.8604 25.8122 57.1836L28.0687 48.7161L39.2281 51.7229L45.9977 26.32C46.6707 23.7939 46.8459 21.2522 46.5834 18.8014L40.8772 22.1139C40.8094 23.0111 40.6581 23.9154 40.4176 24.8168L35.1526 44.5746L23.9929 41.5679L20.2321 55.6804C19.8169 57.2393 18.231 58.1664 16.6901 57.7511C15.1493 57.3361 14.2368 55.7357 14.6524 54.1771L18.4132 40.0643L12.637 38.5082L5.51831 42.6407Z" fill="#5D5FEF"/>
</svg>
